<?xml version="1.0" standalone="no"?>
<!DOCTYPE svg PUBLIC "-//W3C//DTD SVG 20010904//EN"
 "http://www.w3.org/TR/2001/REC-SVG-20010904/DTD/svg10.dtd">
<svg version="1.0" xmlns="http://www.w3.org/2000/svg"
 width="500.000000pt" height="500.000000pt" viewBox="0 0 500.000000 500.000000"
 preserveAspectRatio="xMidYMid meet">

<g transform="translate(0.000000,500.000000) scale(0.100000,-0.100000)"
fill="#000000" stroke="none">
<path d="M977 3347 c-9 -7 -17 -38 -20 -79 -4 -36 -13 -83 -21 -103 -30 -71
-134 -84 -180 -22 -16 22 -22 47 -24 110 -2 45 -7 86 -12 90 -4 5 -33 6 -64 2
-45 -6 -56 -11 -56 -26 0 -10 5 -21 10 -24 6 -3 10 -23 10 -44 0 -98 50 -180
120 -198 l35 -9 5 -97 c5 -103 12 -117 56 -117 37 0 48 26 52 124 l4 93 35 12
c57 21 101 67 118 124 16 54 20 124 7 144 -13 21 -58 33 -75 20z"/>
<path d="M4555 3350 c-131 -19 -207 -101 -221 -239 -13 -122 38 -221 134 -258
56 -22 179 -24 235 -4 43 15 107 66 107 86 0 25 -28 23 -85 -5 -83 -41 -144
-47 -199 -20 -125 60 -113 292 18 351 63 28 112 25 147 -10 16 -16 29 -36 29
-44 0 -17 63 -42 85 -33 21 8 18 53 -6 102 -16 34 -29 46 -62 58 -54 19 -119
25 -182 16z"/>
<path d="M253 3330 c-51 -23 -83 -70 -83 -123 0 -61 45 -99 155 -132 101 -31
123 -42 131 -67 27 -86 -110 -116 -218 -48 -55 33 -79 32 -86 -5 -7 -32 21
-65 77 -92 45 -22 69 -27 126 -27 128 1 205 57 205 149 0 82 -46 122 -192 165
-43 13 -85 31 -94 41 -15 17 -15 20 0 43 28 44 118 47 196 8 l38 -18 17 35
c16 34 16 36 -5 53 -51 42 -194 52 -267 18z"/>
<path d="M1203 3330 c-51 -23 -83 -70 -83 -123 0 -61 45 -99 155 -132 101 -31
123 -42 131 -67 27 -86 -110 -116 -218 -48 -55 33 -79 32 -86 -5 -7 -32 21
-65 77 -92 45 -22 69 -27 126 -27 128 1 205 57 205 149 0 82 -46 122 -192 165
-43 13 -85 31 -94 41 -15 17 -15 20 0 43 28 44 118 47 196 8 l38 -18 17 35
c16 34 16 36 -5 53 -51 42 -194 52 -267 18z"/>
<path d="M1675 3343 c-104 -6 -115 -11 -115 -44 l0 -30 70 7 70 7 0 -207 c0
-193 1 -207 20 -226 22 -22 42 -25 69 -11 16 9 17 27 13 227 l-5 217 75 -6
c41 -3 80 -2 87 3 21 13 9 53 -19 61 -25 7 -172 8 -265 2z"/>
<path d="M2093 3343 c-65 -3 -73 -6 -73 -23 0 -11 4 -20 9 -20 6 0 11 -89 13
-215 2 -159 6 -217 16 -227 14 -14 293 -25 338 -14 28 7 42 49 25 70 -10 12
-37 13 -142 9 l-129 -6 0 76 0 77 110 0 c93 0 112 3 117 16 15 39 -7 47 -120
45 l-107 -2 0 65 0 64 130 4 c144 3 168 13 156 62 l-6 26 -133 -2 c-72 -1
-165 -4 -204 -5z"/>
<path d="M3032 3343 c-25 -5 -90 -97 -164 -230 -22 -40 -44 -76 -49 -79 -5 -3
-44 65 -85 151 l-75 156 -57 -3 -57 -3 -7 -50 c-3 -27 -10 -139 -14 -247 l-7
-198 36 0 37 0 0 58 c0 31 3 115 7 187 l6 129 57 -119 c77 -164 104 -205 135
-205 30 0 51 28 141 188 l69 122 6 -162 c3 -90 9 -170 13 -180 9 -19 50 -31
77 -23 19 6 19 17 17 258 l-3 252 -30 1 c-16 1 -40 0 -53 -3z"/>
<path d="M3515 3343 c-117 -9 -126 -12 -123 -41 3 -27 3 -27 76 -24 l72 4 0
-211 0 -211 25 -16 c16 -10 34 -14 50 -10 l25 6 0 222 0 221 74 -6 c57 -4 78
-2 86 8 19 22 3 52 -32 59 -30 6 -176 6 -253 -1z"/>
<path d="M3923 3343 c-63 -3 -73 -6 -73 -22 0 -11 7 -21 15 -25 13 -4 15 -38
15 -213 0 -114 5 -215 10 -223 7 -12 40 -16 169 -18 183 -4 204 1 199 51 l-3
32 -137 -4 -138 -4 0 76 0 76 113 3 112 3 3 28 3 27 -115 0 -116 0 0 64 0 64
135 4 c146 3 158 8 153 58 l-3 25 -135 1 c-74 0 -168 -1 -207 -3z"/>
<path d="M2247 2314 c-67 -21 -131 -86 -151 -155 -35 -118 -13 -232 59 -298
53 -49 107 -65 203 -59 143 9 235 87 251 210 8 66 -3 142 -26 177 -9 14 -18
35 -18 45 -1 11 -15 30 -31 43 -62 50 -190 67 -287 37z m166 -68 c18 -7 45
-28 62 -45 27 -29 30 -40 34 -112 3 -70 0 -86 -23 -134 -34 -68 -91 -100 -163
-92 -87 9 -136 74 -135 180 0 101 34 165 107 198 48 22 75 23 118 5z"/>
<path d="M3113 2323 c-53 -4 -74 -23 -53 -48 7 -9 -7 -54 -49 -156 -53 -129
-62 -144 -85 -147 -20 -3 -26 -9 -26 -27 0 -13 6 -25 13 -28 9 -3 9 -11 -1
-38 -24 -59 -22 -64 27 -64 43 0 43 0 63 53 l19 52 103 0 102 0 25 -52 c24
-53 24 -53 75 -56 36 -2 53 1 57 10 2 8 -11 52 -30 98 -18 47 -57 153 -85 235
-56 163 -62 176 -87 173 -9 -1 -39 -3 -68 -5z m64 -239 c19 -64 32 -119 29
-122 -3 -2 -41 -1 -85 4 l-79 9 46 117 c26 64 49 115 51 112 3 -2 20 -56 38
-120z"/>
<path d="M1673 2313 c-25 -3 -33 -9 -33 -24 0 -10 7 -19 15 -19 13 0 15 -31
15 -218 0 -156 3 -221 12 -230 8 -8 59 -12 165 -12 151 0 153 0 168 24 13 19
14 29 5 45 -10 20 -20 21 -136 21 -69 0 -123 4 -120 8 2 4 6 98 7 207 l2 200
-34 1 c-19 1 -49 -1 -66 -3z"/>
<path d="M2708 2313 c-22 -3 -28 -10 -28 -29 0 -14 5 -23 12 -21 19 3 30 -153
24 -316 -7 -202 -37 -252 -152 -264 -54 -6 -62 -14 -44 -43 12 -19 111 -17
160 3 125 53 151 153 135 510 l-7 167 -37 -1 c-20 -1 -48 -4 -63 -6z"/>
</g>
</svg>
